<svg width="162" height="311" viewBox="0 0 162 311" fill="none" xmlns="http://www.w3.org/2000/svg">
<path d="M162 131C162 175.735 125.735 212 81 212C36.2649 212 0 175.735 0 131C0 86.2649 36.2649 50 81 50C125.735 50 162 86.2649 162 131Z" fill="#FF4114" fill-opacity="0.4"/>
<path d="M141 195C141 228.137 114.137 255 81 255C47.8629 255 21 228.137 21 195C21 161.863 47.8629 135 81 135C114.137 135 141 161.863 141 195Z" fill="#FF4114" fill-opacity="0.4"/>
<path d="M121 272C121 250.461 103.539 233 82 233C60.4609 233 43 250.461 43 272C43 293.539 60.4609 311 82 311C103.539 311 121 293.539 121 272Z" fill="#FF4114" fill-opacity="0.4"/>
<path d="M121 67C121 44.9086 103.091 27 81 27C58.9086 27 41 44.9086 41 67C41 89.0914 58.9086 107 81 107C103.091 107 121 89.0914 121 67Z" fill="#FF4114" fill-opacity="0.4"/>
<path d="M101 20C101 8.9543 92.0457 0 81 0C69.9543 0 61 8.9543 61 20C61 31.0457 69.9543 40 81 40C92.0457 40 101 31.0457 101 20Z" fill="#FF4114" fill-opacity="0.4"/>
</svg>
