<svg width="352" height="311" viewBox="0 0 352 311" fill="none" xmlns="http://www.w3.org/2000/svg">
<path d="M248 131C248 175.735 211.735 212 167 212C122.265 212 86 175.735 86 131C86 86.2649 122.265 50 167 50C211.735 50 248 86.2649 248 131Z" fill="#C2CFEC" fill-opacity="0.26"/>
<path d="M227 195C227 228.137 200.137 255 167 255C133.863 255 107 228.137 107 195C107 161.863 133.863 135 167 135C200.137 135 227 161.863 227 195Z" fill="#C2CFEC" fill-opacity="0.26"/>
<path d="M207 272C207 250.461 189.539 233 168 233C146.461 233 129 250.461 129 272C129 293.539 146.461 311 168 311C189.539 311 207 293.539 207 272Z" fill="#C2CFEC" fill-opacity="0.26"/>
<path d="M207 67C207 44.9086 189.091 27 167 27C144.909 27 127 44.9086 127 67C127 89.0914 144.909 107 167 107C189.091 107 207 89.0914 207 67Z" fill="#C2CFEC" fill-opacity="0.26"/>
<path d="M187 20C187 8.9543 178.046 0 167 0C155.954 0 147 8.9543 147 20C147 31.0457 155.954 40 167 40C178.046 40 187 31.0457 187 20Z" fill="#C2CFEC" fill-opacity="0.26"/>
<path d="M81.6005 59.2569C60.832 85.7562 44.8607 156.598 95.463 212.991C59.3874 197.36 21.4086 104.56 81.6005 59.2569Z" fill="#FF6139"/>
<path d="M49.275 89.9927C35.926 107.025 25.6604 152.559 58.1852 188.806C34.9974 178.759 10.5864 119.111 49.275 89.9927Z" fill="#FF6139"/>
<path d="M19.4327 119.693C11.4087 129.931 5.23813 157.301 24.7886 179.089C10.8506 173.05 -3.82271 137.196 19.4327 119.693Z" fill="#FF6139"/>
<path d="M232.104 42.9445C258.88 63.3562 292.185 127.888 257.423 195.211C288.397 170.996 301.769 71.6201 232.104 42.9445Z" fill="#FF6139"/>
<path d="M282.131 64.5441C299.341 77.6638 320.748 119.142 298.405 162.414C318.313 146.85 326.908 82.9754 282.131 64.5441Z" fill="#FF6139"/>
<path d="M318.494 85.7676C328.839 93.6537 341.706 118.586 328.276 144.597C340.243 135.241 345.409 96.8465 318.494 85.7676Z" fill="#FF6139"/>
<circle cx="167" cy="131" r="81" fill="url(#paint0_radial_102_15)"/>
<path d="M227 129.5L127.25 187.091L127.25 71.9093L227 129.5Z" fill="url(#paint1_linear_102_15)"/>
<defs>
<radialGradient id="paint0_radial_102_15" cx="0" cy="0" r="1" gradientUnits="userSpaceOnUse" gradientTransform="translate(145.945 212) scale(126.33 8442.73)">
<stop stop-color="#FE930A"/>
<stop offset="0.771193" stop-color="#FF6139"/>
</radialGradient>
<linearGradient id="paint1_linear_102_15" x1="227" y1="129.5" x2="94" y2="129.5" gradientUnits="userSpaceOnUse">
<stop stop-color="#1B283F"/>
<stop offset="0.598958" stop-color="#C2CFEC"/>
</linearGradient>
</defs>
</svg>
