<svg width="328" height="40" viewBox="0 0 328 40" fill="none" xmlns="http://www.w3.org/2000/svg">
<path d="M9.65007 23.2385H0.212557V38.9702H5.39894V27.5474H13.5611L23.9764 38.9702H30.5231L19.6402 27.4255C24.7841 26.6531 27.3348 22.832 27.3348 19.0108C27.3348 14.7832 24.1464 10.5149 17.6847 10.5149H0L3.741 14.8238H16.7495C20.1929 14.8238 21.9359 16.9377 21.9359 19.0515C21.9359 21.1653 20.1929 23.2385 16.7495 23.2385H15.7292L11.5206 18.8076H5.56899L9.65007 23.2385Z" fill="url(#paint0_radial_94_890)"/>
<path d="M39.4183 19.1328H44.6047L42.4791 14.7832H61.4817V10.5149H35.2097L39.4183 19.1328ZM36.2725 22.5881V26.8564H59.7812V22.5881H36.2725ZM35.2097 34.7019V38.9702H61.7368V34.7019H35.2097Z" fill="url(#paint1_radial_94_890)"/>
<path d="M94.8531 13.8889C91.7073 11.3686 85.9682 9.7832 80.5693 9.7832C73.81 9.7832 67.5608 12.2629 67.5608 18.4824C67.5608 29.7425 89.5392 24.5799 89.5392 31.2466C89.5392 34.0921 85.7982 35.3116 81.462 35.3116C76.7858 35.3116 71.4293 33.8889 69.1337 31.5718L66.2004 35.4336C69.2188 38.2385 75.2979 39.8645 81.0794 39.8645C88.2638 39.8645 95.1082 37.3035 95.1082 31.206C95.1082 19.7832 73.0873 24.8645 73.0873 18.5637C73.0873 15.5962 76.6157 14.336 80.6968 14.336C83.0774 14.336 85.6281 14.7425 87.8387 15.4743L83.1625 19.9458H89.1566L94.8531 13.8889Z" fill="url(#paint2_radial_94_890)"/>
<path d="M100.818 20C100.818 33.4417 112.891 40 123.207 40C133.58 40 145.653 33.4417 145.653 20C145.653 6.55827 133.58 0 123.207 0C117.652 0 111.53 1.89702 107.109 5.85366L116.462 19.7832L123.887 19.9458L115.895 7.85908C118.219 6.77507 120.826 6.23306 123.207 6.23306C130.292 6.23306 138.568 10.7859 138.568 20C138.568 29.2141 130.292 33.7669 123.207 33.7669C116.178 33.7669 107.903 29.2141 107.903 20H100.818Z" fill="url(#paint3_radial_94_890)"/>
<path d="M178.286 32.2222L157.796 10.5149H151.164L178.286 38.9702H183.472V10.5149H178.286V32.2222ZM152.227 38.9702H157.413V22.9539H152.227V38.9702Z" fill="url(#paint4_radial_94_890)"/>
<path d="M188.263 38.9702H193.747L196.043 34.336H215.683L218.149 38.9702H223.675L208.541 10.1084H202.802L213.43 30.0677H198.126L201.229 23.8076H196.085L188.263 38.9702Z" fill="url(#paint5_radial_94_890)"/>
<path d="M254.549 32.2222L234.059 10.5149H227.427L254.549 38.9702H259.735V10.5149H254.549V32.2222ZM228.49 38.9702H233.676V22.9539H228.49V38.9702Z" fill="url(#paint6_radial_94_890)"/>
<path d="M265.419 24.7425C265.419 34.7425 274.389 39.7425 282.083 39.7425C287.44 39.7425 292.796 37.4255 296.07 33.523L291.989 30.393C289.82 33.0352 286.42 34.9051 282.253 34.9051C274.729 34.9051 270.945 29.8238 270.945 24.7425C270.945 19.6612 274.729 14.5799 282.253 14.5799C284.634 14.5799 287.142 15.3117 289.183 16.6125L281.233 24.3767H287.355L296.07 15.8808C292.881 11.9377 287.695 9.74255 282.083 9.74255C274.431 9.74255 265.419 14.7425 265.419 24.7425Z" fill="url(#paint7_radial_94_890)"/>
<path d="M305.682 19.1328H310.868L308.742 14.7832H327.745V10.5149H301.473L305.682 19.1328ZM302.536 22.5881V26.8564H326.044V22.5881H302.536ZM301.473 34.7019V38.9702H328V34.7019H301.473Z" fill="url(#paint8_radial_94_890)"/>
<defs>
<radialGradient id="paint0_radial_94_890" cx="0" cy="0" r="1" gradientUnits="userSpaceOnUse" gradientTransform="translate(121.37 40) scale(255.78 2084.62)">
<stop stop-color="#55627B"/>
<stop offset="0.771193" stop-color="#FF6139"/>
</radialGradient>
<radialGradient id="paint1_radial_94_890" cx="0" cy="0" r="1" gradientUnits="userSpaceOnUse" gradientTransform="translate(121.37 40) scale(255.78 2084.62)">
<stop stop-color="#55627B"/>
<stop offset="0.771193" stop-color="#FF6139"/>
</radialGradient>
<radialGradient id="paint2_radial_94_890" cx="0" cy="0" r="1" gradientUnits="userSpaceOnUse" gradientTransform="translate(121.37 40) scale(255.78 2084.62)">
<stop stop-color="#55627B"/>
<stop offset="0.771193" stop-color="#FF6139"/>
</radialGradient>
<radialGradient id="paint3_radial_94_890" cx="0" cy="0" r="1" gradientUnits="userSpaceOnUse" gradientTransform="translate(121.37 40) scale(255.78 2084.62)">
<stop stop-color="#55627B"/>
<stop offset="0.771193" stop-color="#FF6139"/>
</radialGradient>
<radialGradient id="paint4_radial_94_890" cx="0" cy="0" r="1" gradientUnits="userSpaceOnUse" gradientTransform="translate(121.37 40) scale(255.78 2084.62)">
<stop stop-color="#55627B"/>
<stop offset="0.771193" stop-color="#FF6139"/>
</radialGradient>
<radialGradient id="paint5_radial_94_890" cx="0" cy="0" r="1" gradientUnits="userSpaceOnUse" gradientTransform="translate(121.37 40) scale(255.78 2084.62)">
<stop stop-color="#55627B"/>
<stop offset="0.771193" stop-color="#FF6139"/>
</radialGradient>
<radialGradient id="paint6_radial_94_890" cx="0" cy="0" r="1" gradientUnits="userSpaceOnUse" gradientTransform="translate(121.37 40) scale(255.78 2084.62)">
<stop stop-color="#55627B"/>
<stop offset="0.771193" stop-color="#FF6139"/>
</radialGradient>
<radialGradient id="paint7_radial_94_890" cx="0" cy="0" r="1" gradientUnits="userSpaceOnUse" gradientTransform="translate(121.37 40) scale(255.78 2084.62)">
<stop stop-color="#55627B"/>
<stop offset="0.771193" stop-color="#FF6139"/>
</radialGradient>
<radialGradient id="paint8_radial_94_890" cx="0" cy="0" r="1" gradientUnits="userSpaceOnUse" gradientTransform="translate(121.37 40) scale(255.78 2084.62)">
<stop stop-color="#55627B"/>
<stop offset="0.771193" stop-color="#FF6139"/>
</radialGradient>
</defs>
</svg>
