<svg width="328" height="41" viewBox="0 0 328 41" fill="none" xmlns="http://www.w3.org/2000/svg">
<path d="M9.65007 23.8194H0.212557V39.9444H5.39894V28.2361H13.5611L23.9764 39.9444H30.5231L19.6402 28.1111C24.7841 27.3194 27.3348 23.4028 27.3348 19.4861C27.3348 15.1528 24.1464 10.7778 17.6847 10.7778H0L3.741 15.1944H16.7495C20.1929 15.1944 21.9359 17.3611 21.9359 19.5278C21.9359 21.6944 20.1929 23.8194 16.7495 23.8194H15.7292L11.5206 19.2778H5.56899L9.65007 23.8194Z" fill="url(#paint0_radial_94_906)"/>
<path d="M39.4183 19.6111H44.6047L42.4791 15.1528H61.4817V10.7778H35.2097L39.4183 19.6111ZM36.2725 23.1528V27.5278H59.7812V23.1528H36.2725ZM35.2097 35.5694V39.9444H61.7368V35.5694H35.2097Z" fill="url(#paint1_radial_94_906)"/>
<path d="M94.8531 14.2361C91.7073 11.6528 85.9682 10.0278 80.5693 10.0278C73.81 10.0278 67.5608 12.5694 67.5608 18.9444C67.5608 30.4861 89.5392 25.1944 89.5392 32.0278C89.5392 34.9444 85.7982 36.1944 81.462 36.1944C76.7858 36.1944 71.4293 34.7361 69.1337 32.3611L66.2004 36.3194C69.2188 39.1944 75.2979 40.8611 81.0794 40.8611C88.2638 40.8611 95.1082 38.2361 95.1082 31.9861C95.1082 20.2778 73.0873 25.4861 73.0873 19.0278C73.0873 15.9861 76.6157 14.6944 80.6968 14.6944C83.0774 14.6944 85.6281 15.1111 87.8387 15.8611L83.1625 20.4444H89.1566L94.8531 14.2361Z" fill="url(#paint2_radial_94_906)"/>
<path d="M100.818 20.5C100.818 34.2778 112.891 41 123.207 41C133.58 41 145.653 34.2778 145.653 20.5C145.653 6.72222 133.58 0 123.207 0C117.652 0 111.53 1.94445 107.109 6L116.462 20.2778L123.887 20.4444L115.895 8.05556C118.219 6.94444 120.826 6.38889 123.207 6.38889C130.292 6.38889 138.568 11.0556 138.568 20.5C138.568 29.9444 130.292 34.6111 123.207 34.6111C116.178 34.6111 107.903 29.9444 107.903 20.5H100.818Z" fill="url(#paint3_radial_94_906)"/>
<path d="M178.286 33.0278L157.796 10.7778H151.164L178.286 39.9444H183.472V10.7778H178.286V33.0278ZM152.227 39.9444H157.413V23.5278H152.227V39.9444Z" fill="url(#paint4_radial_94_906)"/>
<path d="M188.263 39.9444H193.747L196.043 35.1944H215.683L218.149 39.9444H223.675L208.541 10.3611H202.802L213.43 30.8194H198.126L201.229 24.4028H196.085L188.263 39.9444Z" fill="url(#paint5_radial_94_906)"/>
<path d="M254.549 33.0278L234.059 10.7778H227.427L254.549 39.9444H259.735V10.7778H254.549V33.0278ZM228.49 39.9444H233.676V23.5278H228.49V39.9444Z" fill="url(#paint6_radial_94_906)"/>
<path d="M265.419 25.3611C265.419 35.6111 274.389 40.7361 282.083 40.7361C287.44 40.7361 292.796 38.3611 296.07 34.3611L291.989 31.1528C289.82 33.8611 286.42 35.7778 282.253 35.7778C274.729 35.7778 270.945 30.5694 270.945 25.3611C270.945 20.1528 274.729 14.9444 282.253 14.9444C284.634 14.9444 287.142 15.6944 289.183 17.0278L281.233 24.9861H287.355L296.07 16.2778C292.881 12.2361 287.695 9.98611 282.083 9.98611C274.431 9.98611 265.419 15.1111 265.419 25.3611Z" fill="url(#paint7_radial_94_906)"/>
<path d="M305.682 19.6111H310.868L308.742 15.1528H327.745V10.7778H301.473L305.682 19.6111ZM302.536 23.1528V27.5278H326.044V23.1528H302.536ZM301.473 35.5694V39.9444H328V35.5694H301.473Z" fill="url(#paint8_radial_94_906)"/>
<defs>
<radialGradient id="paint0_radial_94_906" cx="0" cy="0" r="1" gradientUnits="userSpaceOnUse" gradientTransform="translate(121.37 41) scale(255.78 2136.74)">
<stop stop-color="#55627B"/>
<stop offset="0.771193" stop-color="#FF6139"/>
</radialGradient>
<radialGradient id="paint1_radial_94_906" cx="0" cy="0" r="1" gradientUnits="userSpaceOnUse" gradientTransform="translate(121.37 41) scale(255.78 2136.74)">
<stop stop-color="#55627B"/>
<stop offset="0.771193" stop-color="#FF6139"/>
</radialGradient>
<radialGradient id="paint2_radial_94_906" cx="0" cy="0" r="1" gradientUnits="userSpaceOnUse" gradientTransform="translate(121.37 41) scale(255.78 2136.74)">
<stop stop-color="#55627B"/>
<stop offset="0.771193" stop-color="#FF6139"/>
</radialGradient>
<radialGradient id="paint3_radial_94_906" cx="0" cy="0" r="1" gradientUnits="userSpaceOnUse" gradientTransform="translate(121.37 41) scale(255.78 2136.74)">
<stop stop-color="#55627B"/>
<stop offset="0.771193" stop-color="#FF6139"/>
</radialGradient>
<radialGradient id="paint4_radial_94_906" cx="0" cy="0" r="1" gradientUnits="userSpaceOnUse" gradientTransform="translate(121.37 41) scale(255.78 2136.74)">
<stop stop-color="#55627B"/>
<stop offset="0.771193" stop-color="#FF6139"/>
</radialGradient>
<radialGradient id="paint5_radial_94_906" cx="0" cy="0" r="1" gradientUnits="userSpaceOnUse" gradientTransform="translate(121.37 41) scale(255.78 2136.74)">
<stop stop-color="#55627B"/>
<stop offset="0.771193" stop-color="#FF6139"/>
</radialGradient>
<radialGradient id="paint6_radial_94_906" cx="0" cy="0" r="1" gradientUnits="userSpaceOnUse" gradientTransform="translate(121.37 41) scale(255.78 2136.74)">
<stop stop-color="#55627B"/>
<stop offset="0.771193" stop-color="#FF6139"/>
</radialGradient>
<radialGradient id="paint7_radial_94_906" cx="0" cy="0" r="1" gradientUnits="userSpaceOnUse" gradientTransform="translate(121.37 41) scale(255.78 2136.74)">
<stop stop-color="#55627B"/>
<stop offset="0.771193" stop-color="#FF6139"/>
</radialGradient>
<radialGradient id="paint8_radial_94_906" cx="0" cy="0" r="1" gradientUnits="userSpaceOnUse" gradientTransform="translate(121.37 41) scale(255.78 2136.74)">
<stop stop-color="#55627B"/>
<stop offset="0.771193" stop-color="#FF6139"/>
</radialGradient>
</defs>
</svg>
